<svg id="Layer_1" data-name="Layer 1" xmlns="http://www.w3.org/2000/svg" viewBox="0 0 279.58 37.22"><defs><style>.cls-1{fill:#807451;}</style></defs><title>Morrell_Gold</title><path class="cls-1" d="M10.4,74.48h.21c3.5,0,4-2.18,4-4.35V40.7h-4v-.91H24l8.65,24.42h.11l8.81-24.42H54.16v.91H50.25V74.48h3.91v.91H37.63v-.91h4.48V41.61H42L29.86,75.39H28.45L16,41h-.11V69.67c0,4.1,1.1,4.81,3.91,4.81h.73v.91H10.4Z" transform="translate(-10.4 -38.98)"/><path class="cls-1" d="M76.53,39c9.86,0,16.59,8.7,16.59,18.61C93.33,67,85.76,76.2,76.53,76.2S59.74,67,60,57.59C60,47.68,66.68,39,76.53,39Zm7.83,18.61c0-16-3.81-17.7-7.83-17.7s-7.82,1.72-7.82,17.7c0,12.84,1.72,17.7,7.82,17.7S84.36,70.43,84.36,57.59Z" transform="translate(-10.4 -38.98)"/><path class="cls-1" d="M100.94,74.48h4.22V40.7h-4.22v-.91h16.37c5.74,0,15,.91,15,8.34,0,6.12-7,8.14-12.25,8.5v.1c7.66.65,11.42,3.54,11.52,9,.11,7.94.84,8.7,2.92,8.7a4.26,4.26,0,0,0,1.88-.66l.37.76a11.35,11.35,0,0,1-6.37,1.72c-5.58,0-6.93-3.85-6.93-9.41,0-8.14-2-9.35-7.41-9.46H113.3V74.48h4.38v.91H100.94ZM113.3,56.42h2.92c6-.3,7.51-2.52,7.35-8.84,0-6.28-2-6.88-6.47-6.88h-3.8Z" transform="translate(-10.4 -38.98)"/><path class="cls-1" d="M142.76,74.48H147V40.7h-4.22v-.91h16.38c5.73,0,15,.91,15,8.34,0,6.12-7,8.14-12.26,8.5v.1c7.67.65,11.42,3.54,11.53,9,.1,7.94.83,8.7,2.92,8.7a4.23,4.23,0,0,0,1.87-.66l.37.76a11.34,11.34,0,0,1-6.36,1.72c-5.58,0-6.94-3.85-6.94-9.41,0-8.14-2-9.35-7.41-9.46h-2.76V74.48h4.38v.91H142.76Zm12.36-18.06H158c6-.3,7.51-2.52,7.35-8.84,0-6.28-2-6.88-6.46-6.88h-3.81Z" transform="translate(-10.4 -38.98)"/><path class="cls-1" d="M183.28,74.48h4.22V40.7h-4.22v-.91h29.15V49.85h-.93v-.71c0-4.6-3.5-8.44-9.71-8.44h-6.15V56.17h3.6c3.39,0,5.16-1.87,5.16-6.67v-.56h.94v16h-.94V63.76c0-3.59-1.77-6.68-5.16-6.68h-3.6v17.4h7.51c8.55,0,9.81-6.88,9.81-9.76V64h.93V75.39H183.28Z" transform="translate(-10.4 -38.98)"/><path class="cls-1" d="M221.45,74.48h4.23V40.7h-4.23v-.91h17.06v.91h-4.7V74.48h6c9.23,0,11.32-4.35,11.32-10.22v-1h.94V75.39H221.45Z" transform="translate(-10.4 -38.98)"/><path class="cls-1" d="M259.37,74.48h4.22V40.7h-4.22v-.91h17.05v.91h-4.69V74.48h6C287,74.48,289,70.13,289,64.26v-1H290V75.39H259.37Z" transform="translate(-10.4 -38.98)"/></svg>